<svg xmlns="http://www.w3.org/2000/svg" width="48" height="48" viewBox="0 0 24 24" fill="none" stroke="#C8607A" stroke-width="1.6" stroke-linecap="round" stroke-linejoin="round">
  <!-- Rosto oval -->
  <path d="M12 3C8.686 3 6 6.134 6 10c0 2.387.96 4.524 2.5 5.97V18a1 1 0 0 0 1 1h5a1 1 0 0 0 1-1v-2.03C17.04 14.524 18 12.387 18 10c0-3.866-2.686-7-6-7z"/>
  <!-- Olhos -->
  <circle cx="9.5" cy="10" r="0.8" fill="#C8607A" stroke="none"/>
  <circle cx="14.5" cy="10" r="0.8" fill="#C8607A" stroke="none"/>
  <!-- Sorriso -->
  <path d="M9.5 13.5 Q12 15.5 14.5 13.5" stroke="#C8607A" fill="none"/>
  <!-- Brilhos -->
  <line x1="19" y1="5" x2="20" y2="4"/>
  <line x1="20" y1="6" x2="21" y2="6"/>
  <line x1="19" y1="7" x2="20" y2="8"/>
</svg>
